<?xml version="1.0" encoding="UTF-8"?><svg xmlns="http://www.w3.org/2000/svg" xmlns:xlink="http://www.w3.org/1999/xlink" viewBox="0 0 100 100"><defs><clipPath id="b"><rect x="-8.3" y="-1.36" width="116.61" height="102.72" rx="8.1" ry="8.1" fill="none" stroke-width="0"/></clipPath><clipPath id="c"><path d="M8.73,56.95c-1.25-7.26-.58-14.87,2.21-21.99.92-2.35,2.07-4.65,3.45-6.87,3.12-4.99,7.15-9.08,11.74-12.19,8.02-5.45,17.76-7.89,27.38-6.92,6.09.61,12.14,2.6,17.67,6.06,3.29,2.06,6.25,4.56,8.8,7.41,3.89,4.34,6.85,9.49,8.62,15.12,1.66,5.26-1.27,10.87-6.53,12.52-5.26,1.66-10.87-1.27-12.52-6.53-.34-1.08-.77-2.13-1.27-3.13-1.73-3.45-4.39-6.4-7.7-8.47-.37-.23-.74-.44-1.12-.65-4.68-2.55-9.97-3.16-14.86-2.04-5.11,1.17-9.78,4.21-12.9,8.86-.12.18-.25.37-.37.56-2.81,4.49-3.73,9.64-2.97,14.5.81,5.23,3.56,10.14,7.98,13.55.55.42,1.12.82,1.72,1.2l8.46,5.3,16.29,10.2,16.29,10.2,16.29,10.2,16.29,10.2,16.29,10.2,16.29,10.2,14.67,9.18c4.67,2.93,6.09,9.09,3.16,13.76s-9.09,6.09-13.76,3.16l-17.4-10.9-16.29-10.2-16.29-10.2-16.29-10.2-16.29-10.2-16.29-10.2-16.29-10.2-5.73-3.59c-3.94-2.47-7.31-5.49-10.09-8.91-4.5-5.54-7.43-12.12-8.62-19.01Z" fill="none" stroke-width="0"/></clipPath></defs><g isolation="isolate"><g id="a"><g clip-path="url(#b)"><rect x="-8.3" y="-1.36" width="116.61" height="102.72" rx="8.1" ry="8.1" fill="#29e895" stroke-width="0"/><rect x="-8.3" y="-1.36" width="116.61" height="102.72" rx="8.1" ry="8.1" fill="#00a981" stroke-width="0"/><rect x="-11.46" y="-5.4" width="116.61" height="102.72" rx="8.1" ry="8.1" fill="#29e799" stroke-width="0"/><path d="M69.66,9.04C.33-28.95-5.21-29.61-5.21-29.61L-57.28,43.95,23.97,94.42l71.04,59.82,71.02-68.25L69.66,9.04Z" fill="#000" mix-blend-mode="multiply" opacity=".2" stroke-width="0"/><path d="M153.23,159.04c3.77-.95,6.93-3.31,8.9-6.65,4.04-6.83,1.76-15.66-5.08-19.68L41.71,64.93c-7.07-4.16-9.43-13.28-5.25-20.34,2.04-3.44,5.3-5.88,9.2-6.86,3.83-.96,7.81-.4,11.2,1.59,3.05,1.79,5.36,4.61,6.51,7.94,1.18,3.43,3.59,6.26,6.79,7.97,3.18,1.7,6.85,2.16,10.34,1.28.4-.1.8-.22,1.19-.35,3.64-1.25,6.58-3.84,8.27-7.3,1.69-3.45,1.93-7.35.68-10.98-3.37-9.79-10.16-18.08-19.11-23.34-9.95-5.85-21.63-7.51-32.87-4.68-11.44,2.88-21.03,10.03-27.01,20.14-12.26,20.72-5.34,47.51,15.42,59.7l115.34,67.78c3.29,1.93,7.13,2.48,10.84,1.55Z" fill="#000" mix-blend-mode="multiply" opacity=".2" stroke-width="0"/><path d="M79.98,22.45c3.89,4.34,6.85,9.49,8.62,15.12,1.66,5.26-1.27,10.87-6.53,12.52-5.26,1.66-10.87-1.27-12.52-6.53-.34-1.08-.77-2.13-1.27-3.13,3.58-1.36,6.76-3.86,8.95-7.36,2.07-3.3,2.94-7.01,2.75-10.63Z" fill="#f1f2f2" stroke-width="0"/><path d="M17.36,75.96c1.16-2.11,2.76-4.03,4.78-5.61,4.18-3.26,9.34-4.41,14.2-3.61.55.42,1.12.82,1.72,1.2l8.46,5.3c-5.53,1.49-10.28,5.56-12.39,11.35-.47,1.27-.77,2.57-.95,3.86l-5.73-3.59c-3.94-2.47-7.31-5.49-10.09-8.91Z" fill="#f1f2f2" stroke-width="0"/><path d="M61.09,23.79c0,2.68-.59,5.23-1.63,7.52-4.68-2.55-9.97-3.16-14.86-2.04-.46-1.65-1.15-3.27-2.11-4.8-3.62-5.81-9.97-8.87-16.35-8.57,8.02-5.45,17.76-7.89,27.38-6.92,4.6,3.32,7.59,8.72,7.58,14.82Z" fill="#f1f2f2" stroke-width="0"/><path d="M59.46,31.32c1.04-2.29,1.63-4.84,1.63-7.52,0-6.1-2.99-11.5-7.58-14.82,6.09.61,12.14,2.6,17.67,6.06,3.29,2.06,6.25,4.56,8.8,7.41.19,3.62-.68,7.33-2.75,10.63-2.19,3.5-5.37,5.99-8.95,7.36-1.73-3.45-4.39-6.4-7.7-8.47-.37-.23-.74-.44-1.12-.65Z" fill="#ed1c24" stroke-width="0"/><path d="M19.52,51.92c3.12-.32,6.13.16,8.84,1.27.81,5.23,3.56,10.14,7.98,13.55-4.85-.8-10.01.35-14.2,3.61-2.02,1.58-3.62,3.49-4.78,5.61-4.5-5.54-7.43-12.12-8.62-19.01,2.83-2.74,6.56-4.59,10.78-5.03Z" fill="#ed1c24" stroke-width="0"/><path d="M27.07,34.9c1.75.85,3.3,1.95,4.63,3.23-.12.18-.25.37-.37.56-2.81,4.49-3.73,9.64-2.97,14.5-2.71-1.12-5.72-1.6-8.84-1.27-4.22.44-7.95,2.29-10.78,5.03-1.25-7.26-.58-14.87,2.21-21.99,4.9-2.43,10.83-2.64,16.13-.05Z" fill="#f1f2f2" stroke-width="0"/><path d="M42.49,24.47c.95,1.53,1.65,3.15,2.11,4.8-5.11,1.17-9.78,4.21-12.9,8.86-1.33-1.28-2.88-2.38-4.63-3.23-5.29-2.59-11.23-2.38-16.13.05.92-2.35,2.07-4.65,3.45-6.87,3.12-4.99,7.15-9.08,11.74-12.19,6.38-.3,12.73,2.76,16.35,8.57Z" fill="#ed1c24" stroke-width="0"/><path d="M79.1,93.65l16.29,10.2c-5.53,1.49-10.28,5.56-12.39,11.35-.47,1.27-.77,2.57-.95,3.86l-16.29-10.2c.17-1.29.48-2.58.95-3.86,2.11-5.79,6.86-9.86,12.39-11.35Z" fill="#ed1c24" stroke-width="0"/><path d="M62.81,83.45l16.29,10.2c-5.53,1.49-10.28,5.56-12.39,11.35-.47,1.27-.77,2.57-.95,3.86l-16.29-10.2c.17-1.29.48-2.58.95-3.86,2.11-5.79,6.86-9.86,12.39-11.35Z" fill="#f1f2f2" stroke-width="0"/><path d="M46.51,73.24l16.29,10.2c-5.53,1.49-10.28,5.56-12.39,11.35-.47,1.27-.77,2.57-.95,3.86l-16.29-10.2c.17-1.29.48-2.58.95-3.86,2.11-5.79,6.86-9.86,12.39-11.35Z" fill="#ed1c24" stroke-width="0"/><g clip-path="url(#c)"><g opacity=".3"><path d="M78.57,45.07c2.17,1.16,4.67,1.47,7.05.87.27-.07.55-.15.82-.24.93-.32,1.79-.77,2.57-1.33-.15.98-.44,1.94-.89,2.86-1.15,2.35-3.15,4.12-5.64,4.98-.27.09-.54.17-.82.24-2.38.6-4.88.29-7.05-.87-2.17-1.17-3.81-3.09-4.62-5.42-1.75-5.07-5.27-9.37-9.91-12.1-5.15-3.03-11.2-3.89-17.02-2.43-4.57,1.15-8.57,3.62-11.58,7.1.43-1.09.95-2.15,1.56-3.17,3.1-5.24,8.06-8.94,13.99-10.43,5.82-1.46,11.86-.6,17.02,2.43,4.64,2.73,8.16,7.02,9.91,12.1.8,2.33,2.44,4.25,4.62,5.42Z" fill="#fff" stroke-width="0"/><path d="M12.61,31.38c.74-1.26,1.55-2.47,2.4-3.63-4.44,9.02-5.5,19.22-2.96,29.08,2.82,10.92,9.72,20.07,19.42,25.77l127.79,75.1c2.24,1.32,4.87,1.69,7.39,1.06,1.23-.31,2.37-.85,3.37-1.57-.18,1.24-.6,2.43-1.26,3.54-1.35,2.28-3.5,3.89-6.07,4.53-2.53.64-5.15.26-7.39-1.06L27.52,89.1c-9.71-5.7-16.6-14.86-19.42-25.77-2.82-10.92-1.22-22.26,4.52-31.95Z" fill="#fff" stroke-width="0"/></g><g opacity=".2"><path d="M90.55,44.94c-.28.1-.57.18-.85.25-1.03.26-2.08.35-3.12.29.33-1.64.22-3.35-.34-4.97-3.21-9.31-9.66-17.19-18.18-22.19-9.47-5.57-20.58-7.15-31.28-4.45-8.54,2.15-15.99,6.8-21.55,13.34.53-1.1,1.11-2.18,1.74-3.24,6.05-10.23,15.77-17.48,27.35-20.39,11.38-2.87,23.2-1.18,33.28,4.74,9.06,5.32,15.92,13.71,19.34,23.61.89,2.58.72,5.36-.48,7.81-1.21,2.46-3.3,4.31-5.9,5.21Z" fill="#000" stroke-width="0"/><path d="M157.93,159.03c1.26-2.12,1.61-4.61.99-7-.62-2.39-2.13-4.4-4.26-5.65L33.8,75.36c-4.93-2.89-8.42-7.54-9.85-13.07-1.43-5.54-.62-11.29,2.29-16.21,1.49-2.53,3.45-4.67,5.75-6.36-2.31,4.82-2.85,10.24-1.5,15.48,1.52,5.89,5.24,10.83,10.48,13.91l128.59,75.56c2.26,1.33,3.87,3.47,4.53,6.01.66,2.55.28,5.19-1.05,7.45-1.35,2.29-3.53,3.91-6.11,4.56-2.54.64-5.18.26-7.44-1.06l-2.4-1.41c.31-.37.59-.77.84-1.19Z" fill="#000" stroke-width="0"/></g></g></g></g></g></svg>